# xmcd
#
# Track frame offsets:
#  150
#  13137
#  27216
#  53404
#  68147
#
# Disc length: 1148 seconds
#
# Revision: 0
# Processed by: cddbd v1.5.1PL2 Copyright (c) Steve Scherf et al.
# Submitted via: Collectorz.com_Music_Collector 6.11
#
DISCID=35047a05
DTITLE=Cold Shot - Cold Shot
DYEAR=1900
DGENRE=
TTITLE0=Let´s work together
TTITLE1=Speak of the devil
TTITLE2=How many more times
TTITLE3=Lucille
TTITLE4=Travellin blues
EXTD=
EXTT0=
EXTT1=
EXTT2=
EXTT3=
EXTT4=
PLAYORDER=
